<?xml version="1.0" standalone="no"?>
<!DOCTYPE svg PUBLIC "-//W3C//DTD SVG 20010904//EN"
 "http://www.w3.org/TR/2001/REC-SVG-20010904/DTD/svg10.dtd">
<svg version="1.0" xmlns="http://www.w3.org/2000/svg"
 width="512.000000pt" height="512.000000pt" viewBox="0 0 512.000000 512.000000"
 preserveAspectRatio="xMidYMid meet">

<g transform="translate(0.000000,512.000000) scale(0.100000,-0.100000)"
fill="#000000" stroke="none">
<path d="M1384 5110 c-599 -63 -1111 -475 -1303 -1048 -114 -341 -103 -723 30
-1055 l31 -77 63 58 c412 386 978 578 1536 522 421 -43 837 -230 1136 -512 34
-32 66 -58 71 -58 5 0 23 37 40 83 80 210 107 379 99 607 -9 246 -57 433 -168
650 -291 567 -901 897 -1535 830z"/>
<path d="M3450 5113 c-157 -14 -299 -48 -433 -101 l-87 -34 58 -63 c386 -412
578 -978 522 -1536 -43 -420 -231 -837 -512 -1136 -32 -34 -58 -66 -58 -71 0
-11 132 -62 235 -91 200 -57 502 -66 710 -21 284 61 544 197 754 396 431 406
589 1042 400 1607 -154 459 -517 822 -977 976 -191 64 -425 92 -612 74z"/>
<path d="M1365 3083 c-338 -47 -643 -191 -884 -419 -431 -406 -589 -1042 -400
-1607 281 -838 1216 -1274 2032 -946 l77 31 -58 63 c-386 412 -578 978 -522
1536 43 421 230 837 512 1136 32 34 58 66 58 71 0 11 -132 62 -235 91 -114 32
-272 51 -416 50 -74 -1 -147 -4 -164 -6z"/>
<path d="M4940 2155 c-50 -52 -203 -175 -285 -229 -135 -89 -351 -191 -515
-243 -220 -69 -516 -97 -761 -73 -420 43 -837 231 -1136 512 -34 32 -66 58
-71 58 -11 0 -62 -132 -91 -235 -57 -200 -66 -502 -21 -710 112 -522 482 -956
970 -1135 398 -147 833 -127 1213 55 372 178 664 508 796 902 117 350 101 759
-41 1081 l-23 53 -35 -36z"/>
</g>
</svg>
