<?xml version="1.0" standalone="no"?>
<!DOCTYPE svg PUBLIC "-//W3C//DTD SVG 20010904//EN"
 "http://www.w3.org/TR/2001/REC-SVG-20010904/DTD/svg10.dtd">
<svg version="1.0" xmlns="http://www.w3.org/2000/svg"
 width="512.000000pt" height="512.000000pt" viewBox="0 0 512.000000 512.000000"
 preserveAspectRatio="xMidYMid meet">

<g transform="translate(0.000000,512.000000) scale(0.100000,-0.100000)"
fill="#000000" stroke="none">
<path d="M1345 3729 c-250 -32 -491 -152 -676 -338 -466 -465 -466 -1197 0
-1662 193 -193 429 -308 697 -339 70 -8 436 -10 1249 -8 1148 4 1150 4 1248
26 388 88 665 303 822 635 152 320 152 714 0 1034 -157 333 -434 546 -822 635
l-98 22 -1175 2 c-646 1 -1206 -2 -1245 -7z m2435 -653 c175 -59 295 -173 352
-336 32 -93 32 -267 0 -360 -58 -166 -182 -282 -357 -337 -57 -17 -121 -18
-1210 -18 -1087 0 -1153 1 -1209 18 -192 59 -315 181 -370 366 -10 34 -16 91
-16 151 0 155 49 281 149 380 81 81 176 129 299 150 26 4 556 7 1177 6 1071
-1 1133 -2 1185 -20z"/>
<path d="M1412 2925 c-35 -8 -82 -25 -105 -39 -209 -123 -243 -435 -65 -602
58 -54 110 -79 198 -94 95 -16 2251 -9 2300 8 201 69 304 277 240 483 -34 111
-124 202 -240 241 -55 20 -2242 22 -2328 3z"/>
</g>
</svg>
