<?xml version="1.0" standalone="no"?>
<!DOCTYPE svg PUBLIC "-//W3C//DTD SVG 20010904//EN"
 "http://www.w3.org/TR/2001/REC-SVG-20010904/DTD/svg10.dtd">
<svg version="1.0" xmlns="http://www.w3.org/2000/svg"
 width="512.000000pt" height="512.000000pt" viewBox="0 0 512.000000 512.000000"
 preserveAspectRatio="xMidYMid meet">

<g transform="translate(0.000000,512.000000) scale(0.100000,-0.100000)"
fill="#000000" stroke="none">
<path d="M885 5104 c-388 -69 -703 -341 -831 -716 -55 -164 -68 -388 -30 -559
80 -367 352 -668 712 -788 123 -41 231 -55 382 -48 475 20 858 334 984 805 26
99 35 300 19 414 -14 96 -57 230 -102 320 -103 206 -299 396 -502 488 -200 90
-427 121 -632 84z"/>
<path d="M4340 5104 c-111 -23 -224 -86 -311 -173 -251 -252 -252 -650 0 -901
253 -252 651 -253 901 -1 253 254 253 648 0 902 -155 156 -374 220 -590 173z"/>
<path d="M2875 4672 c-72 -23 -165 -118 -188 -191 -63 -199 59 -397 264 -426
57 -8 153 14 207 49 130 82 183 260 119 399 -69 152 -238 223 -402 169z"/>
<path d="M3205 3619 c-261 -38 -486 -212 -588 -455 -74 -174 -74 -394 0 -568
88 -211 281 -379 500 -437 111 -30 270 -30 378 0 223 62 382 193 480 396 53
110 75 205 75 325 0 120 -22 215 -75 325 -112 232 -322 383 -577 415 -92 11
-108 11 -193 -1z"/>
<path d="M1140 2554 c-200 -26 -408 -102 -565 -207 -83 -56 -108 -77 -203
-170 -172 -170 -294 -396 -348 -647 -26 -119 -26 -381 0 -500 110 -512 494
-896 1006 -1006 119 -26 381 -26 500 0 513 111 895 493 1006 1006 26 119 26
381 0 500 -111 513 -494 896 -1006 1006 -73 15 -320 27 -390 18z"/>
<path d="M4622 2549 c-19 -6 -53 -30 -77 -53 -70 -70 -83 -155 -39 -245 67
-134 244 -158 342 -45 146 165 -11 404 -226 343z"/>
<path d="M4165 1700 c-364 -51 -641 -298 -727 -648 -29 -119 -29 -294 1 -407
68 -257 232 -452 476 -566 374 -175 829 -45 1061 303 89 133 132 267 141 433
20 400 -250 765 -638 864 -91 23 -232 33 -314 21z"/>
</g>
</svg>
