<?xml version="1.0" standalone="no"?>
<!DOCTYPE svg PUBLIC "-//W3C//DTD SVG 20010904//EN"
 "http://www.w3.org/TR/2001/REC-SVG-20010904/DTD/svg10.dtd">
<svg version="1.0" xmlns="http://www.w3.org/2000/svg"
 width="512.000000pt" height="512.000000pt" viewBox="0 0 512.000000 512.000000"
 preserveAspectRatio="xMidYMid meet">

<g transform="translate(0.000000,512.000000) scale(0.100000,-0.100000)"
fill="#000000" stroke="none">
<path d="M2280 4794 c-14 -2 -65 -9 -115 -15 -49 -6 -149 -26 -221 -44 -769
-196 -1362 -827 -1513 -1610 -127 -655 73 -1333 533 -1813 279 -290 604 -481
980 -577 128 -32 302 -61 325 -54 6 2 -16 40 -49 84 -64 85 -174 297 -210 405
-47 140 -61 230 -67 415 -8 260 24 436 119 653 104 238 327 493 556 636 146
91 341 169 522 207 149 32 440 33 582 1 279 -62 499 -178 698 -369 l98 -93 6
52 c10 78 -11 325 -40 468 -152 756 -714 1367 -1454 1581 -181 52 -314 71
-530 74 -107 2 -206 2 -220 -1z"/>
<path d="M3198 2924 c-451 -81 -839 -389 -1002 -796 -199 -496 -77 -1063 308
-1436 185 -179 403 -293 666 -349 118 -25 382 -25 500 0 344 73 635 267 823
550 156 235 230 475 230 752 1 273 -64 490 -212 713 -199 296 -518 508 -855
567 -110 19 -351 19 -458 -1z"/>
</g>
</svg>
