<?xml version="1.0" standalone="no"?>
<!DOCTYPE svg PUBLIC "-//W3C//DTD SVG 20010904//EN"
 "http://www.w3.org/TR/2001/REC-SVG-20010904/DTD/svg10.dtd">
<svg version="1.0" xmlns="http://www.w3.org/2000/svg"
 width="512.000000pt" height="512.000000pt" viewBox="0 0 512.000000 512.000000"
 preserveAspectRatio="xMidYMid meet">

<g transform="translate(0.000000,512.000000) scale(0.100000,-0.100000)"
fill="#000000" stroke="none">
<path d="M1413 4582 c-590 -201 -1067 -369 -1060 -373 50 -27 2202 -840 2215
-836 25 7 2175 828 2190 836 7 4 -466 169 -1070 374 -970 329 -1089 368 -1143
367 -52 -1 -211 -53 -1132 -368z"/>
<path d="M130 2489 c0 -1320 1 -1376 19 -1415 10 -23 34 -53 52 -67 26 -19
2042 -809 2132 -834 16 -5 17 67 17 1419 l0 1423 -1098 419 c-603 230 -1103
421 -1109 423 -10 4 -13 -274 -13 -1368z"/>
<path d="M3868 3437 l-1108 -422 0 -1424 c0 -1351 1 -1423 18 -1418 9 2 487
185 1061 406 624 239 1058 412 1079 427 19 15 43 45 53 68 18 39 19 95 19
1414 0 754 -3 1372 -7 1371 -5 0 -506 -191 -1115 -422z"/>
</g>
</svg>
