<?xml version="1.0" standalone="no"?>
<!DOCTYPE svg PUBLIC "-//W3C//DTD SVG 20010904//EN"
 "http://www.w3.org/TR/2001/REC-SVG-20010904/DTD/svg10.dtd">
<svg version="1.0" xmlns="http://www.w3.org/2000/svg"
 width="512.000000pt" height="512.000000pt" viewBox="0 0 512.000000 512.000000"
 preserveAspectRatio="xMidYMid meet">

<g transform="translate(0.000000,512.000000) scale(0.100000,-0.100000)"
fill="#000000" stroke="none">
<path d="M2384 4792 l-42 -7 630 -725 c346 -399 633 -729 639 -734 5 -6 9 220
9 601 l0 611 -122 55 c-212 94 -361 140 -588 179 -120 20 -447 33 -526 20z"/>
<path d="M2020 4734 c-557 -145 -1021 -474 -1335 -949 -54 -81 -205 -367 -205
-387 0 -4 330 -8 733 -8 l733 0 348 393 c191 215 348 396 349 401 0 5 -109
137 -244 292 -169 196 -250 283 -264 283 -11 0 -63 -12 -115 -25z"/>
<path d="M3780 3780 l0 -649 58 -68 c356 -413 885 -1019 892 -1021 20 -7 60
249 67 433 24 623 -237 1267 -693 1705 -107 103 -294 250 -318 250 -3 0 -6
-292 -6 -650z"/>
<path d="M2376 3635 l-376 -425 745 0 c410 0 745 2 745 5 0 6 -729 845 -734
845 -2 0 -172 -191 -380 -425z"/>
<path d="M405 3178 c-116 -401 -111 -873 13 -1274 l28 -89 50 -3 51 -3 602
680 c331 374 613 694 627 711 l26 30 -691 0 -690 0 -16 -52z"/>
<path d="M1823 3008 c-61 -64 -1053 -1188 -1053 -1193 0 -3 207 -5 460 -5
l459 0 556 612 c305 337 555 616 555 620 0 4 -211 8 -468 8 l-468 0 -41 -42z"/>
<path d="M2798 2793 l-235 -258 755 -3 c415 -1 757 0 759 2 3 2 -95 119 -218
260 l-222 256 -302 0 -303 0 -234 -257z"/>
<path d="M2193 2128 c-121 -134 -234 -260 -252 -280 l-33 -38 968 0 969 0
-280 280 -280 280 -436 0 -436 0 -220 -242z"/>
<path d="M3795 2090 l280 -280 296 0 c262 0 298 2 303 16 3 9 3 21 -1 27 -4 7
-106 126 -226 265 l-219 252 -356 0 -357 0 280 -280z"/>
<path d="M520 1640 c0 -17 68 -147 128 -245 150 -247 383 -497 609 -655 l62
-43 153 110 c84 60 331 237 548 393 217 156 443 317 502 359 59 42 107 79 108
84 0 4 -475 7 -1055 7 -714 0 -1055 -3 -1055 -10z"/>
<path d="M3151 1643 c0 -9 946 -677 964 -681 28 -7 244 254 340 409 48 77 145
261 145 274 0 3 -326 5 -725 5 -399 0 -725 -3 -724 -7z"/>
<path d="M2857 1606 c-17 -13 -20 -51 -33 -518 -7 -276 -14 -560 -14 -629 l0
-126 88 13 c342 53 682 191 953 387 140 101 145 106 128 122 -32 31 -1079 765
-1091 765 -7 0 -21 -7 -31 -14z"/>
<path d="M2076 1044 c-324 -232 -593 -427 -599 -433 -6 -6 29 -28 104 -64 292
-141 575 -211 901 -224 l157 -6 5 34 c6 43 31 1108 25 1113 -2 2 -269 -187
-593 -420z"/>
</g>
</svg>
