<?xml version="1.0" standalone="no"?>
<!DOCTYPE svg PUBLIC "-//W3C//DTD SVG 20010904//EN"
 "http://www.w3.org/TR/2001/REC-SVG-20010904/DTD/svg10.dtd">
<svg version="1.0" xmlns="http://www.w3.org/2000/svg"
 width="512.000000pt" height="512.000000pt" viewBox="0 0 512.000000 512.000000"
 preserveAspectRatio="xMidYMid meet">

<g transform="translate(0.000000,512.000000) scale(0.100000,-0.100000)"
fill="#000000" stroke="none">
<path d="M920 5099 c-188 -7 -261 -22 -384 -78 -227 -103 -407 -303 -485 -539
-41 -125 -43 -217 -45 -1572 l-1 -1295 69 3 c197 9 445 124 600 279 108 108
151 193 151 303 0 111 -44 222 -161 412 -123 200 -146 265 -147 423 -3 294
171 485 568 625 50 17 216 67 370 110 154 43 312 90 350 105 308 116 713 475
866 768 77 148 99 292 61 402 l-17 50 -435 6 c-570 8 -1142 7 -1360 -2z"/>
<path d="M3412 4993 c-129 -272 -195 -574 -209 -943 -16 -458 113 -878 318
-1035 145 -110 506 -143 820 -75 330 71 610 247 717 449 60 112 62 131 62 663
0 302 -4 507 -11 544 -39 215 -230 398 -485 463 -130 34 -247 41 -715 41
l-446 0 -51 -107z"/>
<path d="M5010 1949 c-35 -43 -114 -148 -175 -232 -252 -349 -347 -448 -518
-533 -194 -98 -466 -108 -775 -28 -53 14 -227 68 -387 119 -431 140 -595 174
-791 161 -264 -18 -496 -124 -786 -358 -314 -254 -500 -599 -525 -976 l-6 -93
154 6 c85 4 843 10 1684 14 1701 9 1571 3 1723 77 222 109 410 357 457 608 30
154 49 1317 23 1316 -7 -1 -42 -37 -78 -81z"/>
</g>
</svg>
