<?xml version="1.0" standalone="no"?>
<!DOCTYPE svg PUBLIC "-//W3C//DTD SVG 20010904//EN"
 "http://www.w3.org/TR/2001/REC-SVG-20010904/DTD/svg10.dtd">
<svg version="1.0" xmlns="http://www.w3.org/2000/svg"
 width="512.000000pt" height="512.000000pt" viewBox="0 0 512.000000 512.000000"
 preserveAspectRatio="xMidYMid meet">

<g transform="translate(0.000000,512.000000) scale(0.100000,-0.100000)"
fill="#000000" stroke="none">
<path d="M3635 4601 c-195 -32 -340 -106 -481 -246 -183 -181 -264 -391 -251
-649 7 -132 24 -201 81 -321 105 -222 313 -394 556 -461 91 -26 329 -26 419
-1 157 43 259 99 373 206 124 116 205 251 249 416 30 112 30 307 1 420 -28
103 -98 243 -165 325 -112 138 -284 248 -452 290 -90 23 -254 33 -330 21z"/>
<path d="M1846 3750 c-34 -11 -82 -54 -102 -92 -18 -35 -18 -111 0 -146 23
-42 1747 -1760 1779 -1772 131 -48 262 67 227 201 -10 40 -89 122 -878 912
-477 478 -879 875 -893 882 -36 19 -98 26 -133 15z"/>
<path d="M1134 3510 c-100 -23 -158 -147 -110 -236 18 -35 2221 -2237 2254
-2254 13 -6 43 -12 67 -12 98 0 168 69 168 165 0 29 -6 64 -13 77 -16 32
-2195 2215 -2235 2239 -37 23 -90 31 -131 21z"/>
<path d="M615 3015 c-52 -18 -93 -67 -100 -119 -3 -23 -5 -546 -3 -1163 3
-1115 3 -1122 24 -1149 11 -15 33 -37 48 -48 27 -21 34 -21 1164 -24 1024 -2
1141 -1 1179 14 49 18 79 51 93 103 23 87 84 21 -1133 1239 -617 618 -1133
1129 -1147 1136 -42 23 -83 26 -125 11z"/>
</g>
</svg>
