<?xml version="1.0" standalone="no"?>
<!DOCTYPE svg PUBLIC "-//W3C//DTD SVG 20010904//EN"
 "http://www.w3.org/TR/2001/REC-SVG-20010904/DTD/svg10.dtd">
<svg version="1.0" xmlns="http://www.w3.org/2000/svg"
 width="512.000000pt" height="512.000000pt" viewBox="0 0 512.000000 512.000000"
 preserveAspectRatio="xMidYMid meet">

<g transform="translate(0.000000,512.000000) scale(0.100000,-0.100000)"
fill="#000000" stroke="none">
<path d="M4033 4789 c-233 -39 -435 -236 -486 -474 -8 -38 -28 -151 -43 -250
-25 -164 -30 -182 -55 -207 -37 -38 -88 -38 -130 0 -29 25 -31 33 -39 127 -25
276 -167 451 -418 516 -91 23 -212 25 -301 4 -194 -46 -374 -215 -431 -405
-11 -36 -87 -495 -170 -1020 -83 -525 -156 -975 -162 -999 -20 -82 -114 -151
-204 -151 -35 0 -123 40 -146 66 -9 10 -33 55 -54 99 -139 296 -488 361 -712
134 -53 -54 -85 -107 -106 -179 -28 -94 -176 -1062 -176 -1154 0 -191 87 -353
229 -426 153 -78 350 -51 479 65 96 87 128 159 162 368 22 141 32 166 82 214
44 42 96 63 158 63 99 0 165 -48 217 -157 109 -230 304 -358 543 -356 261 2
498 178 570 423 11 36 78 441 151 900 79 505 137 844 146 858 22 36 77 55 118
42 49 -16 64 -39 86 -130 50 -211 192 -367 394 -436 204 -68 441 -9 599 150
72 72 120 148 151 241 25 74 235 1415 235 1500 0 269 -200 514 -466 570 -76
16 -142 17 -221 4z"/>
<path d="M1265 4426 c-124 -30 -228 -114 -284 -228 -83 -169 -35 -388 113
-510 86 -71 222 -108 328 -89 142 25 256 109 319 236 32 66 34 75 34 180 0
103 -2 114 -32 178 -86 182 -287 280 -478 233z"/>
<path d="M817 3299 c-131 -32 -219 -142 -219 -274 0 -295 392 -391 530 -130
36 68 38 188 4 252 -61 116 -196 181 -315 152z"/>
<path d="M3702 2002 c-71 -26 -118 -66 -156 -132 -28 -49 -31 -64 -31 -135 0
-70 4 -87 29 -133 53 -95 138 -145 246 -145 105 -1 194 50 247 140 37 63 44
180 16 244 -62 139 -215 209 -351 161z"/>
<path d="M4208 1159 c-224 -32 -388 -257 -350 -480 60 -350 480 -479 723 -222
273 289 24 758 -373 702z"/>
</g>
</svg>
