<?xml version="1.0" standalone="no"?>
<!DOCTYPE svg PUBLIC "-//W3C//DTD SVG 20010904//EN"
 "http://www.w3.org/TR/2001/REC-SVG-20010904/DTD/svg10.dtd">
<svg version="1.0" xmlns="http://www.w3.org/2000/svg"
 width="512.000000pt" height="512.000000pt" viewBox="0 0 512.000000 512.000000"
 preserveAspectRatio="xMidYMid meet">

<g transform="translate(0.000000,512.000000) scale(0.100000,-0.100000)"
fill="#000000" stroke="none">
<path d="M2150 4233 l0 -688 -485 485 -485 485 -287 -288 -288 -287 485 -485
485 -485 -688 0 -687 0 0 -410 0 -410 687 0 688 0 -485 -485 -485 -485 288
-287 287 -288 485 485 485 485 0 -688 0 -687 410 0 410 0 0 687 0 688 485
-485 485 -485 287 288 288 287 -485 485 -485 485 688 0 687 0 0 410 0 410
-687 0 -688 0 485 485 485 485 -288 287 -287 288 -485 -485 -485 -485 0 688 0
687 -410 0 -410 0 0 -687z"/>
</g>
</svg>
