<?xml version="1.0" standalone="no"?>
<!DOCTYPE svg PUBLIC "-//W3C//DTD SVG 20010904//EN"
 "http://www.w3.org/TR/2001/REC-SVG-20010904/DTD/svg10.dtd">
<svg version="1.0" xmlns="http://www.w3.org/2000/svg"
 width="512.000000pt" height="512.000000pt" viewBox="0 0 512.000000 512.000000"
 preserveAspectRatio="xMidYMid meet">

<g transform="translate(0.000000,512.000000) scale(0.100000,-0.100000)"
fill="#000000" stroke="none">
<path d="M1960 4670 l0 -260 265 0 265 0 0 260 0 260 -265 0 -265 0 0 -260z"/>
<path d="M2747 4633 c-4 -3 -7 -240 -7 -525 l0 -518 315 0 315 0 2 208 3 207
208 3 207 2 0 315 0 315 -518 0 c-285 0 -522 -3 -525 -7z"/>
<path d="M1360 4045 l0 -165 160 0 160 0 -2 163 -3 162 -157 3 -158 3 0 -166z"/>
<path d="M3515 3858 c-3 -7 -4 -254 -3 -548 l3 -535 283 -3 282 -2 0 -255 0
-255 520 0 520 0 0 805 0 805 -800 0 c-631 0 -802 -3 -805 -12z"/>
<path d="M0 2670 l0 -980 585 0 585 0 0 540 0 540 395 0 395 0 0 440 0 440
-980 0 -980 0 0 -980z"/>
<path d="M1490 1320 l0 -1130 1135 0 1135 0 0 1130 0 1130 -1135 0 -1135 0 0
-1130z"/>
</g>
</svg>
