<?xml version="1.0" standalone="no"?>
<!DOCTYPE svg PUBLIC "-//W3C//DTD SVG 20010904//EN"
 "http://www.w3.org/TR/2001/REC-SVG-20010904/DTD/svg10.dtd">
<svg version="1.0" xmlns="http://www.w3.org/2000/svg"
 width="512.000000pt" height="512.000000pt" viewBox="0 0 512.000000 512.000000"
 preserveAspectRatio="xMidYMid meet">

<g transform="translate(0.000000,512.000000) scale(0.100000,-0.100000)"
fill="#000000" stroke="none">
<path d="M1220 5114 c-425 -54 -780 -274 -1005 -622 -278 -432 -285 -991 -18
-1435 103 -170 275 -345 442 -448 39 -24 71 -46 70 -49 0 -3 -39 -30 -87 -62
-344 -223 -561 -571 -612 -982 -23 -177 0 -402 56 -574 180 -540 658 -907
1224 -938 486 -27 967 222 1221 635 24 39 46 71 49 70 3 0 30 -39 62 -87 204
-314 516 -525 886 -599 119 -24 384 -24 502 0 623 124 1071 637 1106 1267 20
344 -91 673 -319 945 -88 106 -173 181 -299 263 -48 31 -87 59 -87 62 -1 3 31
25 70 48 313 194 542 527 616 900 24 120 24 384 0 504 -89 449 -388 818 -806
999 -397 171 -860 138 -1233 -88 -174 -105 -345 -273 -449 -441 -24 -40 -46
-72 -49 -72 -3 0 -25 32 -49 71 -192 312 -526 542 -894 615 -80 15 -326 27
-397 18z m359 -419 c172 -42 318 -124 446 -250 102 -100 138 -149 195 -263 30
-61 80 -197 80 -218 0 -2 -84 -4 -187 -3 l-188 0 -34 72 c-47 100 -158 210
-261 261 -179 87 -379 85 -553 -6 -81 -42 -203 -164 -245 -245 -70 -133 -88
-286 -52 -427 29 -113 73 -190 160 -276 150 -151 340 -208 545 -165 169 36
335 163 406 312 l34 72 188 0 c103 1 187 -1 187 -3 0 -21 -50 -157 -80 -218
-57 -114 -93 -163 -195 -263 -129 -127 -273 -207 -451 -252 -95 -24 -333 -24
-428 0 -182 46 -328 128 -462 261 -133 134 -215 280 -261 462 -24 95 -24 333
0 428 45 179 128 327 257 457 147 150 309 236 513 275 90 17 296 11 386 -11z
m2412 -4 c179 -46 319 -127 449 -260 129 -130 212 -278 257 -457 24 -95 24
-333 0 -428 -45 -178 -125 -322 -252 -451 -100 -102 -149 -138 -263 -195 -61
-30 -197 -80 -218 -80 -2 0 -4 84 -3 188 l0 187 72 34 c100 47 210 158 261
261 66 135 82 276 46 414 -29 113 -73 190 -160 276 -86 87 -163 131 -276 160
-141 36 -294 18 -427 -52 -81 -42 -203 -164 -245 -245 -91 -174 -93 -374 -6
-553 51 -103 161 -214 261 -261 l72 -34 0 -187 c1 -104 -1 -188 -3 -188 -21 0
-157 50 -218 80 -114 57 -163 93 -263 195 -127 129 -207 273 -252 451 -24 95
-24 333 0 428 45 179 128 327 257 457 147 150 309 236 513 275 100 19 299 12
398 -15z m-2521 -765 c59 -39 85 -89 85 -166 0 -78 -26 -127 -88 -168 -56 -37
-153 -39 -210 -3 -76 47 -111 140 -88 229 14 51 75 117 123 131 53 16 135 6
178 -23z m2400 0 c59 -39 85 -89 85 -166 0 -78 -26 -127 -88 -168 -56 -37
-153 -39 -210 -3 -76 47 -111 140 -88 229 14 51 75 117 123 131 53 16 135 6
178 -23z m-1261 -888 c99 -161 269 -330 430 -429 39 -24 71 -46 71 -49 0 -3
-32 -25 -72 -49 -162 -100 -329 -267 -430 -430 -23 -39 -45 -71 -48 -71 -3 0
-25 32 -49 72 -100 162 -267 329 -430 430 -39 23 -71 45 -71 48 0 3 32 25 71
48 163 101 330 268 430 430 24 40 46 72 49 72 3 0 25 -32 49 -72z m1382 -747
c179 -46 319 -127 449 -260 129 -130 212 -278 257 -457 24 -95 24 -333 0 -428
-46 -185 -125 -324 -262 -461 -179 -178 -372 -266 -621 -282 -281 -17 -558 94
-752 302 -75 79 -113 134 -162 233 -30 61 -80 197 -80 218 0 2 84 4 188 3
l187 0 34 -72 c47 -100 158 -210 261 -261 179 -87 379 -85 553 6 81 42 203
164 245 245 70 133 88 286 52 427 -29 113 -73 190 -160 276 -150 151 -340 208
-545 165 -169 -36 -335 -163 -406 -312 l-34 -72 -187 0 c-104 -1 -188 1 -188
3 0 2 9 33 20 69 50 160 124 284 244 403 145 145 308 231 509 270 100 19 299
12 398 -15z m-2832 -178 l0 -188 -72 -34 c-100 -47 -210 -158 -261 -261 -87
-179 -85 -379 6 -553 42 -81 164 -203 245 -245 133 -70 286 -88 427 -52 113
29 190 73 276 160 151 150 208 340 165 545 -36 169 -163 335 -312 406 l-72 34
0 188 c-1 103 1 187 3 187 21 0 157 -50 218 -80 114 -57 163 -93 263 -195 127
-129 207 -273 252 -451 24 -95 24 -333 0 -428 -46 -185 -125 -324 -262 -461
-137 -137 -275 -215 -461 -262 -103 -26 -343 -23 -445 5 -182 49 -316 127
-449 261 -129 129 -212 277 -257 457 -24 95 -24 333 0 428 25 100 72 210 125
296 86 140 266 298 409 361 47 21 180 68 196 69 4 0 7 -84 6 -187z m311 -587
c59 -39 85 -89 85 -166 0 -78 -26 -127 -88 -168 -56 -37 -153 -39 -210 -3 -76
47 -111 140 -88 229 14 51 75 117 123 131 53 16 135 6 178 -23z m2400 0 c59
-39 85 -89 85 -166 0 -78 -26 -127 -88 -168 -56 -37 -153 -39 -210 -3 -76 47
-111 140 -88 229 14 51 75 117 123 131 53 16 135 6 178 -23z"/>
</g>
</svg>
