<?xml version="1.0" standalone="no"?>
<!DOCTYPE svg PUBLIC "-//W3C//DTD SVG 20010904//EN"
 "http://www.w3.org/TR/2001/REC-SVG-20010904/DTD/svg10.dtd">
<svg version="1.0" xmlns="http://www.w3.org/2000/svg"
 width="512.000000pt" height="512.000000pt" viewBox="0 0 512.000000 512.000000"
 preserveAspectRatio="xMidYMid meet">

<g transform="translate(0.000000,512.000000) scale(0.100000,-0.100000)"
fill="#000000" stroke="none">
<path d="M1788 4159 c-562 -82 -1304 -1158 -1479 -2144 -30 -172 -37 -449 -15
-584 70 -419 311 -576 644 -421 151 71 384 266 550 462 l67 80 11 -84 c17
-126 32 -185 75 -276 115 -250 339 -301 639 -146 47 24 117 67 155 96 93 70
258 230 336 328 l64 79 11 -87 c31 -243 125 -413 261 -474 67 -30 199 -36 292
-13 506 124 1146 1044 1376 1979 54 218 69 337 69 541 0 204 -17 299 -76 422
-37 77 -140 188 -201 217 -157 73 -366 17 -607 -162 -87 -64 -273 -248 -345
-341 l-50 -63 -12 93 c-32 240 -122 403 -258 469 -74 36 -199 40 -297 10 -93
-28 -223 -95 -313 -162 -84 -62 -294 -270 -356 -352 l-44 -60 -8 70 c-41 371
-220 563 -489 523z"/>
</g>
</svg>
