<?xml version="1.0" standalone="no"?>
<!DOCTYPE svg PUBLIC "-//W3C//DTD SVG 20010904//EN"
 "http://www.w3.org/TR/2001/REC-SVG-20010904/DTD/svg10.dtd">
<svg version="1.0" xmlns="http://www.w3.org/2000/svg"
 width="512.000000pt" height="512.000000pt" viewBox="0 0 512.000000 512.000000"
 preserveAspectRatio="xMidYMid meet">

<g transform="translate(0.000000,512.000000) scale(0.100000,-0.100000)"
fill="#000000" stroke="none">
<path d="M3191 5109 c-726 -76 -1372 -531 -1696 -1194 -399 -815 -232 -1790
416 -2437 381 -380 848 -587 1407 -623 l92 -6 0 214 0 214 -92 7 c-442 33
-804 195 -1105 494 -326 324 -503 748 -503 1207 0 652 362 1237 949 1530 205
102 489 175 686 175 l65 0 0 215 0 215 -67 -1 c-38 -1 -106 -6 -152 -10z"/>
<path d="M3298 4259 c-504 -44 -935 -385 -1097 -867 -84 -251 -86 -538 -5
-795 78 -247 245 -480 455 -637 189 -141 440 -233 672 -247 l87 -6 0 211 0
211 -32 5 c-18 3 -60 8 -93 12 -200 21 -435 163 -561 339 -55 78 -116 208
-138 295 -54 211 -18 453 96 644 52 89 172 214 260 272 194 130 455 175 678
118 87 -22 217 -83 295 -138 176 -126 318 -361 339 -561 4 -33 9 -75 12 -92
l5 -33 211 0 211 0 -6 88 c-31 503 -377 953 -863 1120 -149 51 -360 76 -526
61z"/>
<path d="M433 2838 c46 -1065 683 -2041 1646 -2522 376 -188 770 -291 1196
-312 l135 -7 0 216 0 217 -73 0 c-176 0 -439 41 -644 101 -694 201 -1279 702
-1592 1361 -92 193 -164 414 -205 629 -14 72 -28 207 -42 392 l-6 77 -210 0
-211 0 6 -152z"/>
</g>
</svg>
