<?xml version="1.0" standalone="no"?>
<!DOCTYPE svg PUBLIC "-//W3C//DTD SVG 20010904//EN"
 "http://www.w3.org/TR/2001/REC-SVG-20010904/DTD/svg10.dtd">
<svg version="1.0" xmlns="http://www.w3.org/2000/svg"
 width="512.000000pt" height="512.000000pt" viewBox="0 0 512.000000 512.000000"
 preserveAspectRatio="xMidYMid meet">

<g transform="translate(0.000000,512.000000) scale(0.100000,-0.100000)"
fill="#000000" stroke="none">
<path d="M2505 4775 c-22 -8 -294 -131 -605 -273 l-565 -258 -22 -44 -23 -44
0 -626 0 -625 -492 -225 c-270 -124 -505 -232 -522 -240 -17 -8 -41 -30 -53
-49 l-23 -34 0 -704 c0 -747 -1 -733 46 -774 11 -9 134 -69 274 -134 140 -64
401 -185 579 -267 262 -122 329 -149 355 -145 17 3 269 113 560 246 291 133
535 241 542 241 10 0 753 -339 1015 -463 31 -15 68 -27 84 -27 29 0 1187 521
1219 549 47 41 46 27 46 771 0 744 1 730 -46 771 -11 9 -206 101 -434 204
-228 104 -461 210 -517 236 l-103 48 0 623 0 624 -22 44 -23 45 -260 118
c-795 362 -913 415 -940 420 -16 4 -48 0 -70 -8z m428 -474 c203 -93 365 -171
360 -174 -5 -3 -173 -80 -373 -172 l-364 -166 -296 135 c-162 74 -331 151
-374 171 l-80 36 370 169 c203 93 374 169 379 169 6 0 176 -76 378 -168z m587
-899 l0 -489 -397 -181 c-219 -100 -401 -182 -405 -182 -5 0 -8 220 -8 488 l0
489 398 181 c218 100 400 182 405 182 4 0 7 -220 7 -488z m-1632 -957 l302
-138 -371 -169 c-361 -165 -372 -169 -403 -156 -18 7 -184 83 -369 168 -214
99 -332 158 -324 163 7 5 171 82 366 172 l355 163 70 -32 c39 -18 207 -95 374
-171z m2151 35 c198 -91 361 -167 361 -170 0 -3 -167 -81 -371 -174 -365 -166
-372 -168 -403 -154 -17 8 -182 84 -368 169 -185 85 -335 155 -334 157 8 7
742 340 747 339 4 -1 169 -76 368 -167z m-1639 -903 l0 -494 -392 -178 c-216
-98 -396 -180 -400 -182 -5 -2 -8 218 -8 490 l0 493 398 182 c218 99 398 181
400 181 1 1 2 -221 2 -492z m2220 0 l0 -492 -396 -180 c-218 -99 -400 -181
-405 -183 -5 -2 -9 196 -9 490 l0 493 403 182 c221 101 403 183 405 183 1 0 2
-222 2 -493z"/>
</g>
</svg>
