<?xml version="1.0" standalone="no"?>
<!DOCTYPE svg PUBLIC "-//W3C//DTD SVG 20010904//EN"
 "http://www.w3.org/TR/2001/REC-SVG-20010904/DTD/svg10.dtd">
<svg version="1.0" xmlns="http://www.w3.org/2000/svg"
 width="512.000000pt" height="512.000000pt" viewBox="0 0 512.000000 512.000000"
 preserveAspectRatio="xMidYMid meet">

<g transform="translate(0.000000,512.000000) scale(0.100000,-0.100000)"
fill="#000000" stroke="none">
<path d="M2545 4789 c-134 -13 -345 -54 -485 -94 -522 -150 -963 -482 -1243
-935 -115 -187 -228 -470 -276 -690 -69 -323 -69 -698 0 -1020 34 -153 105
-357 178 -506 346 -708 1002 -1137 1856 -1215 195 -17 518 7 612 46 53 22 66
92 25 128 -10 8 -84 31 -167 52 -523 129 -921 397 -1190 800 -165 247 -262
502 -311 815 -23 143 -23 428 -1 580 109 748 581 1339 1261 1579 210 74 404
110 636 117 91 3 177 10 192 16 39 15 55 61 35 103 -14 29 -29 38 -119 73
-344 133 -669 182 -1003 151z"/>
<path d="M3113 4130 c-107 -15 -270 -58 -361 -96 -375 -154 -678 -481 -807
-867 -51 -155 -66 -237 -72 -412 -4 -134 -2 -180 15 -280 36 -208 110 -395
228 -572 117 -176 368 -403 446 -403 28 0 42 6 57 26 30 38 26 63 -19 133
-195 302 -250 659 -154 1000 31 109 128 306 194 393 72 95 224 234 324 296
424 265 961 245 1363 -50 29 -21 88 -72 132 -113 89 -83 121 -94 158 -52 34
37 34 55 3 135 -115 297 -395 590 -701 731 -108 50 -255 97 -366 117 -104 18
-352 26 -440 14z"/>
<path d="M3488 3250 c-217 -34 -377 -118 -524 -273 -116 -122 -185 -255 -220
-427 -21 -106 -16 -309 9 -356 21 -41 63 -56 105 -39 26 12 34 23 47 72 30
107 38 128 68 188 116 232 352 366 622 352 374 -19 645 -301 645 -669 0 -53 3
-63 29 -89 16 -16 36 -29 45 -29 56 0 91 52 128 189 30 108 30 324 0 432 -103
376 -417 632 -803 653 -52 2 -120 1 -151 -4z"/>
</g>
</svg>
