<?xml version="1.0" standalone="no"?>
<!DOCTYPE svg PUBLIC "-//W3C//DTD SVG 20010904//EN"
 "http://www.w3.org/TR/2001/REC-SVG-20010904/DTD/svg10.dtd">
<svg version="1.0" xmlns="http://www.w3.org/2000/svg"
 width="512.000000pt" height="512.000000pt" viewBox="0 0 512.000000 512.000000"
 preserveAspectRatio="xMidYMid meet">

<g transform="translate(0.000000,512.000000) scale(0.100000,-0.100000)"
fill="#000000" stroke="none">
<path d="M769 4596 c-102 -27 -181 -95 -228 -196 l-26 -55 0 -1785 0 -1785 26
-56 c37 -79 90 -133 167 -171 l67 -33 1785 0 1785 0 67 33 c77 38 130 92 167
171 l26 56 0 1785 0 1785 -33 67 c-38 77 -92 130 -171 166 -48 22 -73 27 -178
30 l-123 4 -2 -1708 -3 -1709 -170 0 -170 0 -3 1708 -2 1707 -170 0 -170 0 0
-1365 0 -1365 -170 0 -170 0 0 1365 0 1365 -170 0 -170 0 0 -1025 0 -1025
-170 0 -170 0 0 1025 0 1025 -170 0 -170 0 0 -685 0 -685 -170 0 -170 0 0 685
0 685 -170 0 -170 0 0 -340 0 -340 -175 0 -175 0 0 340 0 340 -102 -1 c-57 0
-124 -6 -149 -13z"/>
</g>
</svg>
