<?xml version="1.0" standalone="no"?>
<!DOCTYPE svg PUBLIC "-//W3C//DTD SVG 20010904//EN"
 "http://www.w3.org/TR/2001/REC-SVG-20010904/DTD/svg10.dtd">
<svg version="1.0" xmlns="http://www.w3.org/2000/svg"
 width="512.000000pt" height="512.000000pt" viewBox="0 0 512.000000 512.000000"
 preserveAspectRatio="xMidYMid meet">

<g transform="translate(0.000000,512.000000) scale(0.100000,-0.100000)"
fill="#000000" stroke="none">
<path d="M3530 5114 c-295 -38 -565 -151 -768 -322 -29 -24 -51 -46 -49 -49 3
-2 53 -15 112 -28 592 -134 1152 -516 1507 -1030 178 -257 317 -571 384 -864
12 -57 25 -105 27 -108 3 -2 25 20 49 49 147 174 255 407 304 653 25 125 25
395 0 520 -118 592 -549 1032 -1132 1155 -97 20 -352 34 -434 24z"/>
<path d="M1960 4465 c-676 -91 -1260 -466 -1623 -1043 -230 -367 -351 -823
-334 -1262 20 -485 185 -934 484 -1314 72 -91 268 -287 359 -359 596 -469
1381 -609 2098 -373 391 129 753 375 1021 697 231 275 402 636 474 994 101
509 18 1059 -230 1508 -337 610 -907 1017 -1594 1138 -156 28 -499 35 -655 14z
m408 -946 c518 -56 935 -393 1095 -884 85 -259 81 -564 -9 -817 -159 -445
-541 -766 -1003 -843 -148 -25 -379 -17 -511 18 -443 116 -775 420 -914 837
-47 142 -66 258 -66 410 0 269 71 504 221 727 66 99 232 265 329 330 265 177
563 255 858 222z"/>
<path d="M2314 3194 c14 -57 125 -271 187 -358 82 -114 221 -253 335 -335 86
-61 301 -173 357 -187 25 -6 27 -4 27 27 -1 81 -42 223 -98 339 -140 287 -445
505 -751 536 l-64 7 7 -29z"/>
</g>
</svg>
