<?xml version="1.0" standalone="no"?>
<!DOCTYPE svg PUBLIC "-//W3C//DTD SVG 20010904//EN"
 "http://www.w3.org/TR/2001/REC-SVG-20010904/DTD/svg10.dtd">
<svg version="1.0" xmlns="http://www.w3.org/2000/svg"
 width="512.000000pt" height="512.000000pt" viewBox="0 0 512.000000 512.000000"
 preserveAspectRatio="xMidYMid meet">

<g transform="translate(0.000000,512.000000) scale(0.100000,-0.100000)"
fill="#000000" stroke="none">
<path d="M2404 4505 c-292 -63 -518 -288 -585 -581 -30 -130 -49 -164 -117
-205 -189 -113 -416 -328 -534 -505 -105 -157 -199 -361 -229 -497 -12 -57
-12 -59 13 -84 l26 -25 93 16 c188 34 206 45 252 163 61 155 173 320 309 453
158 154 225 158 346 22 149 -168 322 -254 542 -269 310 -20 610 163 740 451
49 107 64 180 64 311 1 98 -4 133 -23 195 -44 144 -111 249 -223 356 -112 107
-248 179 -382 203 -79 15 -216 13 -292 -4z"/>
<path d="M3625 3490 c-33 -13 -43 -31 -75 -136 -41 -133 -38 -152 52 -257 127
-149 203 -283 264 -462 35 -103 39 -207 9 -247 -28 -37 -58 -52 -148 -77 -252
-69 -448 -255 -533 -506 -32 -97 -43 -263 -25 -370 51 -293 271 -527 571 -607
115 -31 278 -28 395 7 256 76 437 249 520 500 21 62 28 107 32 201 7 152 -11
243 -72 369 -54 112 -130 204 -229 279 -42 32 -83 68 -91 80 -8 12 -20 69 -25
127 -38 373 -191 708 -450 983 -73 77 -135 126 -159 125 -9 0 -25 -4 -36 -9z"/>
<path d="M2428 2681 c-31 -10 -72 -28 -91 -39 -55 -35 -136 -127 -165 -189
-24 -52 -27 -69 -27 -173 0 -109 2 -119 32 -182 59 -126 181 -216 322 -239
178 -28 365 72 444 239 30 63 32 73 32 182 0 109 -2 118 -32 181 -43 87 -138
178 -220 210 -81 31 -217 36 -295 10z"/>
<path d="M1091 2280 c-190 -50 -350 -165 -453 -325 -206 -321 -154 -726 126
-981 212 -194 489 -253 757 -160 58 20 115 36 127 36 12 0 75 -26 140 -59 143
-72 253 -111 403 -145 229 -51 470 -53 699 -6 112 23 144 43 148 92 3 30 -6
46 -63 116 -94 117 -93 117 -228 106 -255 -20 -447 0 -629 66 -95 35 -105 42
-129 95 -25 55 -24 82 10 167 139 350 -34 777 -384 944 -156 75 -363 96 -524
54z"/>
</g>
</svg>
